<?xml version="1.0" encoding="UTF-8"?>
<svg id="Layer_8" data-name="Layer 8" xmlns="http://www.w3.org/2000/svg" version="1.1" viewBox="0 0 5793.64 2990">
  <g>
    <g>
      <path d="M1941.58,2773.64c0,30.71-11.27,55.37-33.81,73.99-22.87,18.3-50.64,27.44-83.3,27.44-29.08,0-54.72-8.49-76.93-25.48-22.22-16.98-37.57-40.18-46.06-69.58l43.12-17.64c2.94,10.46,7.02,19.93,12.25,28.42,5.22,8.5,11.35,15.76,18.38,21.8,7.02,6.05,14.78,10.78,23.28,14.21,8.49,3.43,17.47,5.15,26.95,5.15,20.58,0,37.4-5.31,50.47-15.93,13.06-10.61,19.6-24.75,19.6-42.38,0-14.7-5.39-27.27-16.17-37.73-10.13-10.12-29.08-19.92-56.84-29.4-28.1-10.12-45.57-16.98-52.43-20.58-37.24-18.94-55.86-46.87-55.86-83.79,0-25.8,10.29-47.85,30.87-66.15,20.9-18.29,46.55-27.44,76.93-27.44,26.78,0,49.98,6.86,69.58,20.58,19.6,13.4,32.66,30.22,39.2,50.47l-42.14,17.64c-3.92-13.06-11.68-23.93-23.28-32.58-11.6-8.65-25.72-12.98-42.38-12.98-17.64,0-32.51,4.9-44.59,14.7-12.09,9.15-18.13,21.07-18.13,35.77,0,12.09,4.73,22.54,14.21,31.36,10.45,8.82,33.15,19.28,68.11,31.36,35.6,12.09,61,26.87,76.2,44.35,15.19,17.48,22.79,38.96,22.79,64.43Z" fill="#5f6368" stroke-width="0"/>
      <path d="M2088.09,2875.07c-35.28,0-64.36-12.08-87.22-36.26-22.87-24.17-34.3-54.71-34.3-91.63s11.1-67.05,33.32-91.38c22.21-24.33,50.63-36.5,85.26-36.5s63.95,11.51,85.02,34.54c21.07,23.03,31.6,55.29,31.6,96.77l-.49,4.9h-188.65c.65,23.52,8.49,42.47,23.52,56.84,15.02,14.38,32.99,21.56,53.9,21.56,28.74,0,51.28-14.37,67.62-43.12l40.18,19.6c-10.78,20.26-25.72,36.1-44.83,47.53s-40.75,17.15-64.92,17.15ZM2016.06,2718.27h137.69c-1.31-16.66-8.08-30.46-20.33-41.41-12.25-10.94-28.67-16.41-49.25-16.41-16.99,0-31.61,5.23-43.86,15.68-12.25,10.46-20.33,24.5-24.25,42.14Z" fill="#5f6368" stroke-width="0"/>
      <path d="M2345.24,2875.07c-35.61,0-65.17-12.08-88.69-36.26-23.2-24.82-34.79-55.37-34.79-91.63s11.59-67.45,34.79-91.63c23.52-24.17,53.08-36.26,88.69-36.26,24.5,0,45.89,6.12,64.19,18.38,18.29,12.25,32.01,29.15,41.16,50.71l-41.16,17.15c-12.74-30.05-35.12-45.08-67.13-45.08-20.58,0-38.39,8.33-53.41,24.99-14.7,16.66-22.05,37.24-22.05,61.74s7.35,45.08,22.05,61.74c15.02,16.66,32.83,24.99,53.41,24.99,32.99,0,56.18-15.02,69.58-45.08l40.18,17.15c-8.82,21.56-22.62,38.46-41.4,50.71-18.79,12.25-40.59,18.38-65.42,18.38Z" fill="#5f6368" stroke-width="0"/>
      <path d="M2689.11,2867.23h-43.12v-33.32h-1.96c-6.86,11.76-17.39,21.56-31.6,29.4s-28.99,11.76-44.34,11.76c-29.4,0-52.02-8.41-67.87-25.23-15.85-16.82-23.76-40.75-23.76-71.79v-150.92h45.08v147.98c.98,39.2,20.74,58.8,59.29,58.8,17.96,0,32.99-7.27,45.08-21.81,12.08-14.53,18.13-31.93,18.13-52.18v-132.79h45.08v240.1Z" fill="#5f6368" stroke-width="0"/>
      <path d="M2779.56,2867.23h-45.08v-240.1h43.12v39.2h1.96c4.57-12.74,13.97-23.6,28.18-32.58,14.21-8.98,28.17-13.48,41.89-13.48s24.17,1.96,33.32,5.88l-13.72,43.61c-5.56-2.28-14.38-3.43-26.46-3.43-16.99,0-31.77,6.86-44.35,20.58-12.58,13.72-18.87,29.73-18.87,48.02v132.3Z" fill="#5f6368" stroke-width="0"/>
      <path d="M2959.98,2544.32c0,8.82-3.11,16.34-9.31,22.54s-13.72,9.31-22.54,9.31-16.34-3.1-22.54-9.31c-6.21-6.2-9.31-13.72-9.31-22.54s3.1-16.33,9.31-22.54c6.2-6.2,13.72-9.31,22.54-9.31s16.33,3.11,22.54,9.31c6.2,6.21,9.31,13.72,9.31,22.54ZM2950.67,2627.13v240.1h-45.08v-240.1h45.08Z" fill="#5f6368" stroke-width="0"/>
      <path d="M3088.15,2871.15c-19.6,0-35.85-6.04-48.75-18.13-12.91-12.08-19.52-28.91-19.84-50.47v-134.26h-42.14v-41.16h42.14v-73.5h45.08v73.5h58.8v41.16h-58.8v119.56c0,16.01,3.1,26.87,9.31,32.58,6.2,5.72,13.23,8.58,21.07,8.58,3.59,0,7.1-.41,10.53-1.22,3.43-.81,6.62-1.88,9.56-3.19l14.21,40.18c-11.76,4.24-25.48,6.37-41.16,6.37Z" fill="#5f6368" stroke-width="0"/>
      <path d="M3379.11,2627.13l-150.43,345.94h-46.55l55.86-121.03-98.98-224.91h49l71.54,172.48h.98l69.58-172.48h49Z" fill="#5f6368" stroke-width="0"/>
      <path d="M3867.63,2691.81c0,51.94-17.32,95.39-51.94,130.34-34.96,35.28-77.75,52.92-128.38,52.92s-93.76-17.64-128.38-52.92c-34.63-34.95-51.94-78.4-51.94-130.34s17.31-95.38,51.94-130.34c34.62-35.28,77.42-52.92,128.38-52.92s93.75,17.81,128.38,53.41c34.62,34.96,51.94,78.24,51.94,129.85ZM3553.05,2691.81c0,40.51,12.74,73.99,38.22,100.45,25.8,26.46,57.82,39.69,96.04,39.69s70.07-13.23,95.55-39.69c25.8-26.13,38.71-59.61,38.71-100.45s-12.91-74.31-38.71-100.45c-25.48-26.46-57.33-39.69-95.55-39.69s-70.24,13.23-96.04,39.69c-25.48,26.46-38.22,59.95-38.22,100.45Z" fill="#5f6368" stroke-width="0"/>
      <path d="M4033.69,2875.07c-17.64,0-33.73-3.76-48.26-11.27-14.54-7.51-25.72-17.47-33.57-29.89h-1.96l1.96,33.32v105.84h-45.08v-345.94h43.12v33.32h1.96c7.84-12.41,19.03-22.37,33.57-29.89,14.53-7.51,30.62-11.27,48.26-11.27,31.68,0,58.47,12.42,80.36,37.24,22.54,25.16,33.81,55.37,33.81,90.65s-11.27,65.83-33.81,90.65c-21.89,24.83-48.68,37.24-80.36,37.24ZM4026.34,2833.91c21.56,0,39.69-8.16,54.39-24.5,14.7-16,22.05-36.75,22.05-62.23s-7.35-45.89-22.05-62.23c-14.7-16.33-32.83-24.5-54.39-24.5s-40.18,8.17-54.88,24.5c-14.38,16.34-21.56,37.08-21.56,62.23s7.18,46.39,21.56,62.72c14.7,16.01,32.99,24.01,54.88,24.01Z" fill="#5f6368" stroke-width="0"/>
      <path d="M4289.07,2875.07c-35.28,0-64.36-12.08-87.22-36.26-22.87-24.17-34.3-54.71-34.3-91.63s11.1-67.05,33.32-91.38c22.21-24.33,50.63-36.5,85.26-36.5s63.95,11.51,85.02,34.54c21.07,23.03,31.6,55.29,31.6,96.77l-.49,4.9h-188.65c.65,23.52,8.49,42.47,23.52,56.84,15.02,14.38,32.99,21.56,53.9,21.56,28.74,0,51.28-14.37,67.62-43.12l40.18,19.6c-10.78,20.26-25.72,36.1-44.83,47.53s-40.75,17.15-64.92,17.15ZM4217.04,2718.27h137.69c-1.31-16.66-8.08-30.46-20.33-41.41-12.25-10.94-28.67-16.41-49.25-16.41-16.99,0-31.61,5.23-43.86,15.68-12.25,10.46-20.33,24.5-24.25,42.14Z" fill="#5f6368" stroke-width="0"/>
      <path d="M4480.12,2867.23h-45.08v-240.1h43.12v39.2h1.96c4.57-12.74,13.97-23.6,28.18-32.58,14.21-8.98,28.17-13.48,41.89-13.48s24.17,1.96,33.32,5.88l-13.72,43.61c-5.56-2.28-14.38-3.43-26.46-3.43-16.99,0-31.77,6.86-44.35,20.58-12.58,13.72-18.87,29.73-18.87,48.02v132.3Z" fill="#5f6368" stroke-width="0"/>
      <path d="M4693.36,2619.29c33.32,0,59.61,8.9,78.89,26.71,19.27,17.81,28.91,42.22,28.91,73.25v147.98h-43.12v-33.32h-1.96c-18.62,27.44-43.45,41.16-74.48,41.16-26.46,0-48.59-7.84-66.4-23.52-17.81-15.68-26.71-35.28-26.71-58.8,0-24.82,9.39-44.59,28.17-59.29,18.78-14.7,43.86-22.05,75.22-22.05,26.78,0,48.83,4.9,66.15,14.7v-10.29c0-15.68-6.21-28.99-18.62-39.93-12.42-10.94-26.95-16.42-43.61-16.42-25.16,0-45.08,10.62-59.78,31.85l-39.69-24.99c21.88-31.36,54.22-47.04,97.02-47.04ZM4635.05,2793.73c0,11.76,4.98,21.56,14.95,29.4,9.96,7.84,21.64,11.76,35.04,11.76,18.94,0,35.85-7.02,50.71-21.07,14.86-14.04,22.29-30.54,22.29-49.49-14.05-11.1-33.65-16.66-58.8-16.66-18.3,0-33.57,4.41-45.82,13.23-12.25,8.82-18.38,19.77-18.38,32.83Z" fill="#5f6368" stroke-width="0"/>
      <path d="M4930.81,2871.15c-19.6,0-35.85-6.04-48.75-18.13-12.91-12.08-19.52-28.91-19.84-50.47v-134.26h-42.14v-41.16h42.14v-73.5h45.08v73.5h58.8v41.16h-58.8v119.56c0,16.01,3.1,26.87,9.31,32.58,6.2,5.72,13.23,8.58,21.07,8.58,3.59,0,7.1-.41,10.53-1.22,3.43-.81,6.62-1.88,9.56-3.19l14.21,40.18c-11.76,4.24-25.48,6.37-41.16,6.37Z" fill="#5f6368" stroke-width="0"/>
      <path d="M5052.52,2544.32c0,8.82-3.11,16.34-9.31,22.54s-13.72,9.31-22.54,9.31-16.34-3.1-22.54-9.31c-6.21-6.2-9.31-13.72-9.31-22.54s3.1-16.33,9.31-22.54c6.2-6.2,13.72-9.31,22.54-9.31s16.33,3.11,22.54,9.31c6.2,6.21,9.31,13.72,9.31,22.54ZM5043.21,2627.13v240.1h-45.08v-240.1h45.08Z" fill="#5f6368" stroke-width="0"/>
      <path d="M5076.23,2747.18c0-36.91,11.59-67.45,34.79-91.63,23.52-24.17,53.08-36.26,88.69-36.26s65,12.09,88.2,36.26c23.52,24.18,35.28,54.72,35.28,91.63s-11.76,67.79-35.28,91.63c-23.2,24.18-52.6,36.26-88.2,36.26s-65.17-12.08-88.69-36.26c-23.2-24.17-34.79-54.71-34.79-91.63ZM5121.31,2747.18c0,25.81,7.51,46.72,22.54,62.72,15.02,16.01,33.64,24.01,55.86,24.01s40.83-8,55.86-24.01c15.02-16,22.54-36.91,22.54-62.72s-7.52-46.22-22.54-62.23c-15.36-16.33-33.98-24.5-55.86-24.5s-40.51,8.17-55.86,24.5c-15.03,16.01-22.54,36.75-22.54,62.23Z" fill="#5f6368" stroke-width="0"/>
      <path d="M5355.19,2627.13h43.12v33.32h1.96c6.86-11.76,17.4-21.56,31.61-29.4s28.99-11.76,44.34-11.76c29.4,0,52.02,8.41,67.87,25.23,15.84,16.83,23.76,40.75,23.76,71.79v150.92h-45.08v-147.98c-.98-39.2-20.75-58.8-59.29-58.8-17.97,0-33,7.27-45.08,21.8-12.09,14.54-18.13,31.93-18.13,52.18v132.79h-45.08v-240.1Z" fill="#5f6368" stroke-width="0"/>
      <path d="M5793.64,2800.59c0,20.91-9.15,38.55-27.44,52.92-18.3,14.37-41.33,21.56-69.09,21.56-24.18,0-45.41-6.29-63.7-18.87-18.3-12.57-31.36-29.15-39.2-49.73l40.18-17.15c5.88,14.38,14.45,25.56,25.72,33.57,11.27,8.01,23.6,12,37,12,14.37,0,26.38-3.1,36.01-9.31,9.63-6.2,14.46-13.55,14.46-22.05,0-15.35-11.76-26.62-35.28-33.81l-41.16-10.29c-46.72-11.76-70.07-34.3-70.07-67.62,0-21.88,8.9-39.45,26.71-52.67,17.8-13.23,40.59-19.84,68.35-19.84,21.23,0,40.43,5.07,57.58,15.19,17.15,10.13,29.16,23.69,36.01,40.67l-40.18,16.66c-4.58-10.12-12-18.05-22.29-23.76-10.29-5.71-21.8-8.58-34.54-8.58-11.76,0-22.29,2.94-31.61,8.82-9.31,5.88-13.96,13.07-13.96,21.56,0,13.72,12.9,23.52,38.71,29.4l36.26,9.31c47.69,11.76,71.54,35.77,71.54,72.03Z" fill="#5f6368" stroke-width="0"/>
    </g>
    <path d="M202.4,2713.58v-54.25h181.59c1.85,9.56,2.94,20.94,2.94,33.26,0,40.69-11.14,91.06-46.97,126.91-34.87,36.33-79.42,55.7-138.5,55.7-109.44,0-201.45-89.13-201.45-198.6s92.01-198.6,201.45-198.6c60.53,0,103.63,23.74,136.08,54.74l-38.26,38.27c-23.25-21.8-54.72-38.75-97.82-38.75-79.9,0-142.37,64.42-142.37,144.35s62.47,144.35,142.37,144.35c51.82,0,81.36-20.83,100.24-39.72,15.39-15.39,25.52-37.47,29.46-67.65h-128.75Z" fill="#5f6368" stroke-width="0"/>
    <path d="M663.64,2747.32c0,73.63-57.63,127.88-128.33,127.88s-128.33-54.25-128.33-127.88,57.63-127.88,128.33-127.88,128.33,53.77,128.33,127.88ZM607.47,2747.32c0-46.02-33.41-77.5-72.15-77.5s-72.16,31.48-72.16,77.5,33.41,77.5,72.16,77.5,72.15-31.97,72.15-77.5Z" fill="#5f6368" stroke-width="0"/>
    <path d="M943.59,2747.32c0,73.63-57.63,127.88-128.33,127.88s-128.33-54.25-128.33-127.88,57.63-127.88,128.33-127.88,128.33,53.77,128.33,127.88ZM887.42,2747.32c0-46.02-33.41-77.5-72.15-77.5s-72.16,31.48-72.16,77.5,33.41,77.5,72.16,77.5,72.15-31.97,72.15-77.5Z" fill="#5f6368" stroke-width="0"/>
    <path d="M1211.93,2627.19v229.6c0,94.46-55.69,133.21-121.55,133.21-61.99,0-99.27-41.66-113.32-75.56l48.91-20.35c8.72,20.83,30.02,45.53,64.41,45.53,42.13,0,68.28-26.16,68.28-75.08v-18.41h-1.94c-12.59,15.5-36.8,29.06-67.31,29.06-63.93,0-122.52-55.7-122.52-127.39s58.59-128.36,122.52-128.36c30.51,0,54.72,13.56,67.31,28.58h1.94v-20.83h53.27ZM1162.53,2747.81c0-45.05-30.02-77.99-68.28-77.99s-71.19,32.94-71.19,77.99,32.44,77.02,71.19,77.02,68.28-32.45,68.28-77.02Z" fill="#5f6368" stroke-width="0"/>
    <path d="M1307.07,2492.82v374.63h-56.17v-374.63h56.17Z" fill="#5f6368" stroke-width="0"/>
    <path d="M1524,2789.46l43.58,29.06c-14.05,20.83-47.94,56.67-106.54,56.67-72.64,0-126.88-56.19-126.88-127.88,0-76.05,54.72-127.88,120.58-127.88s98.79,52.8,109.44,81.38l5.81,14.53-170.95,70.72c13.08,25.67,33.42,38.75,61.99,38.75s48.43-14.05,62.96-35.36ZM1389.85,2743.45l114.28-47.47c-6.3-15.98-25.18-27.12-47.46-27.12-28.57,0-68.28,25.19-66.83,74.6Z" fill="#5f6368" stroke-width="0"/>
  </g>
  <g>
    <g>
      <path d="M2430.79,1566.77c-159.09-150.83-239.76-311.02-239.76-476.11V307.29h1411.58l62.51-76.67-62.51-80.17h-1411.58c-86.62,0-156.84,70.22-156.84,156.84v783.37c0,209.84,97.13,408.32,288.69,589.93,188.35,178.57,421.03,291.06,542.97,343.48l7.74,3.33c7.33,3.15,15.41,5.11,23.23,5.14,7.99.04,15.73-1.92,23.23-5.14l7.74-3.33c43.58-18.73,101.35-45.19,166.14-79.55-28.61-34.04-54.69-70.99-54.69-70.99,0,0-142.24-5.02-142.42-5.1-117.66-53.06-309.94-153.69-466.03-301.67Z" fill="#4285f4" stroke-width="0"/>
      <path d="M3602.61,150.45v940.22c0,165.1-80.67,325.28-239.76,476.11-156.09,147.99-348.37,248.61-466.03,301.67.27.12,88.54,33,197.11,76.09,116.5-61.77,255.79-149.19,376.83-263.94,191.56-181.61,288.69-380.1,288.69-589.93V307.29c0-86.62-70.22-156.84-156.84-156.84h0Z" fill="#34a853" stroke-width="0"/>
    </g>
    <g>
      <path d="M2729.7,1511.99l128.08-7.89,39.04-79.63c-78.01-37.41-151.47-84.93-205.13-137.46-72.03-70.51-108.55-142.92-108.55-215.21v-372.41l48.63-78.69-48.63-78.15h0c-86.62,0-156.84,70.22-156.84,156.84v372.41c0,187.9,140.22,339.52,303.4,440.18Z" fill="#fbbc04" stroke-width="0"/>
      <path d="M3210.5,699.39v372.18c0,72.31-36.53,144.77-108.57,215.35-53.69,52.6-127.14,100.16-205.11,137.56l-167.12,87.51c44.47,27.43,90.64,51.09,136.15,70.66l7.74,3.33c7.44,3.2,15.3,5.46,23.23,5.45,7.88-.01,15.84-2.28,23.23-5.45l7.74-3.33c62.51-26.87,182.52-84.37,283.9-183.69,101.83-99.76,155.65-212.97,155.65-327.38v-372.18c0-86.62-70.22-156.84-156.84-156.84h-627.37v156.84h627.37Z" fill="#ea4335" stroke-width="0"/>
    </g>
  </g>
</svg>